<?xml version="1.0" encoding="UTF-8" standalone="no"?>
<!DOCTYPE svg PUBLIC "-//W3C//DTD SVG 1.1//EN"
 "http://www.w3.org/Graphics/SVG/1.1/DTD/svg11.dtd">
<!-- Generated by graphviz version 2.40.1 (20161225.0304)
 -->
<!-- Title: G Pages: 1 -->
<svg width="278pt" height="404pt"
 viewBox="0.00 0.00 278.00 404.00" xmlns="http://www.w3.org/2000/svg" xmlns:xlink="http://www.w3.org/1999/xlink">
<g id="graph0" class="graph" transform="scale(1 1) rotate(0) translate(4 400)">
<title>G</title>
<polygon fill="#eee" stroke="transparent" points="-4,4 -4,-400 274,-400 274,4 -4,4"/>
<!-- c1 -->
<g id="node1" class="node">
<title>c1</title>
<ellipse fill="none" stroke="#000000" cx="207" cy="-378" rx="27" ry="18"/>
<text text-anchor="middle" x="207" y="-373.8" font-family="Times,serif" font-size="14.00" fill="#000000">:</text>
</g>
<!-- c2 -->
<g id="node2" class="node">
<title>c2</title>
<ellipse fill="none" stroke="#000000" cx="171" cy="-306" rx="27" ry="18"/>
<text text-anchor="middle" x="171" y="-301.8" font-family="Times,serif" font-size="14.00" fill="#000000">:</text>
</g>
<!-- c1&#45;&gt;c2 -->
<g id="edge2" class="edge">
<title>c1&#45;&gt;c2</title>
<path fill="none" stroke="#000000" d="M198.2854,-360.5708C194.0403,-352.0807 188.8464,-341.6929 184.1337,-332.2674"/>
<polygon fill="#000000" stroke="#000000" points="187.237,-330.6477 179.6343,-323.2687 180.976,-333.7782 187.237,-330.6477"/>
</g>
<!-- 1 -->
<g id="node6" class="node">
<title>1</title>
<ellipse fill="none" stroke="#000000" cx="243" cy="-306" rx="27" ry="18"/>
<text text-anchor="middle" x="243" y="-301.8" font-family="Times,serif" font-size="14.00" fill="#000000">1</text>
</g>
<!-- c1&#45;&gt;1 -->
<g id="edge1" class="edge">
<title>c1&#45;&gt;1</title>
<path fill="none" stroke="#000000" d="M215.7146,-360.5708C219.9597,-352.0807 225.1536,-341.6929 229.8663,-332.2674"/>
<polygon fill="#000000" stroke="#000000" points="233.024,-333.7782 234.3657,-323.2687 226.763,-330.6477 233.024,-333.7782"/>
</g>
<!-- c3 -->
<g id="node3" class="node">
<title>c3</title>
<ellipse fill="none" stroke="#000000" cx="135" cy="-234" rx="27" ry="18"/>
<text text-anchor="middle" x="135" y="-229.8" font-family="Times,serif" font-size="14.00" fill="#000000">:</text>
</g>
<!-- c2&#45;&gt;c3 -->
<g id="edge4" class="edge">
<title>c2&#45;&gt;c3</title>
<path fill="none" stroke="#000000" d="M162.2854,-288.5708C158.0403,-280.0807 152.8464,-269.6929 148.1337,-260.2674"/>
<polygon fill="#000000" stroke="#000000" points="151.237,-258.6477 143.6343,-251.2687 144.976,-261.7782 151.237,-258.6477"/>
</g>
<!-- 2 -->
<g id="node7" class="node">
<title>2</title>
<ellipse fill="none" stroke="#000000" cx="207" cy="-234" rx="27" ry="18"/>
<text text-anchor="middle" x="207" y="-229.8" font-family="Times,serif" font-size="14.00" fill="#000000">2</text>
</g>
<!-- c2&#45;&gt;2 -->
<g id="edge3" class="edge">
<title>c2&#45;&gt;2</title>
<path fill="none" stroke="#000000" d="M179.7146,-288.5708C183.9597,-280.0807 189.1536,-269.6929 193.8663,-260.2674"/>
<polygon fill="#000000" stroke="#000000" points="197.024,-261.7782 198.3657,-251.2687 190.763,-258.6477 197.024,-261.7782"/>
</g>
<!-- c4 -->
<g id="node4" class="node">
<title>c4</title>
<ellipse fill="none" stroke="#000000" cx="99" cy="-162" rx="27" ry="18"/>
<text text-anchor="middle" x="99" y="-157.8" font-family="Times,serif" font-size="14.00" fill="#000000">:</text>
</g>
<!-- c3&#45;&gt;c4 -->
<g id="edge6" class="edge">
<title>c3&#45;&gt;c4</title>
<path fill="none" stroke="#000000" d="M126.2854,-216.5708C122.0403,-208.0807 116.8464,-197.6929 112.1337,-188.2674"/>
<polygon fill="#000000" stroke="#000000" points="115.237,-186.6477 107.6343,-179.2687 108.976,-189.7782 115.237,-186.6477"/>
</g>
<!-- 3 -->
<g id="node8" class="node">
<title>3</title>
<ellipse fill="none" stroke="#000000" cx="171" cy="-162" rx="27" ry="18"/>
<text text-anchor="middle" x="171" y="-157.8" font-family="Times,serif" font-size="14.00" fill="#000000">3</text>
</g>
<!-- c3&#45;&gt;3 -->
<g id="edge5" class="edge">
<title>c3&#45;&gt;3</title>
<path fill="none" stroke="#000000" d="M143.7146,-216.5708C147.9597,-208.0807 153.1536,-197.6929 157.8663,-188.2674"/>
<polygon fill="#000000" stroke="#000000" points="161.024,-189.7782 162.3657,-179.2687 154.763,-186.6477 161.024,-189.7782"/>
</g>
<!-- c5 -->
<g id="node5" class="node">
<title>c5</title>
<ellipse fill="none" stroke="#000000" cx="63" cy="-90" rx="27" ry="18"/>
<text text-anchor="middle" x="63" y="-85.8" font-family="Times,serif" font-size="14.00" fill="#000000">:</text>
</g>
<!-- c4&#45;&gt;c5 -->
<g id="edge8" class="edge">
<title>c4&#45;&gt;c5</title>
<path fill="none" stroke="#000000" d="M90.2854,-144.5708C86.0403,-136.0807 80.8464,-125.6929 76.1337,-116.2674"/>
<polygon fill="#000000" stroke="#000000" points="79.237,-114.6477 71.6343,-107.2687 72.976,-117.7782 79.237,-114.6477"/>
</g>
<!-- 4 -->
<g id="node9" class="node">
<title>4</title>
<ellipse fill="none" stroke="#000000" cx="135" cy="-90" rx="27" ry="18"/>
<text text-anchor="middle" x="135" y="-85.8" font-family="Times,serif" font-size="14.00" fill="#000000">4</text>
</g>
<!-- c4&#45;&gt;4 -->
<g id="edge7" class="edge">
<title>c4&#45;&gt;4</title>
<path fill="none" stroke="#000000" d="M107.7146,-144.5708C111.9597,-136.0807 117.1536,-125.6929 121.8663,-116.2674"/>
<polygon fill="#000000" stroke="#000000" points="125.024,-117.7782 126.3657,-107.2687 118.763,-114.6477 125.024,-117.7782"/>
</g>
<!-- 5 -->
<g id="node10" class="node">
<title>5</title>
<ellipse fill="none" stroke="#000000" cx="27" cy="-18" rx="27" ry="18"/>
<text text-anchor="middle" x="27" y="-13.8" font-family="Times,serif" font-size="14.00" fill="#000000">5</text>
</g>
<!-- c5&#45;&gt;5 -->
<g id="edge9" class="edge">
<title>c5&#45;&gt;5</title>
<path fill="none" stroke="#000000" d="M54.2854,-72.5708C50.0403,-64.0807 44.8464,-53.6929 40.1337,-44.2674"/>
<polygon fill="#000000" stroke="#000000" points="43.237,-42.6477 35.6343,-35.2687 36.976,-45.7782 43.237,-42.6477"/>
</g>
<!-- [] -->
<g id="node11" class="node">
<title>[]</title>
<ellipse fill="none" stroke="#000000" cx="99" cy="-18" rx="27" ry="18"/>
<text text-anchor="middle" x="99" y="-13.8" font-family="Times,serif" font-size="14.00" fill="#000000">[]</text>
</g>
<!-- c5&#45;&gt;[] -->
<g id="edge10" class="edge">
<title>c5&#45;&gt;[]</title>
<path fill="none" stroke="#000000" d="M71.7146,-72.5708C75.9597,-64.0807 81.1536,-53.6929 85.8663,-44.2674"/>
<polygon fill="#000000" stroke="#000000" points="89.024,-45.7782 90.3657,-35.2687 82.763,-42.6477 89.024,-45.7782"/>
</g>
</g>
</svg>
